HIERARCHY
ROOT Hips
{
	OFFSET 0.000000 71.427986 0.000000
	CHANNELS 6 Xposition Yposition Zposition Xrotation Yrotation Zrotation
	JOINT Pelvis
	{
		OFFSET 0.000000 0.000000 0.000000
		CHANNELS 3 Xrotation Yrotation Zrotation
		JOINT LeftUpLeg
		{
			OFFSET 6.797100 -2.508499 -1.318700
			CHANNELS 3 Xrotation Yrotation Zrotation
			JOINT LeftLeg
			{
				OFFSET 0.069008 -29.241863 0.690200
				CHANNELS 3 Xrotation Yrotation Zrotation
				JOINT LeftFoot
				{
					OFFSET -0.069008 -29.568123 -0.266800
					CHANNELS 3 Xrotation Yrotation Zrotation
					JOINT LeftToeBase
					{
						OFFSET 3.145500 -8.631000 16.059900
						CHANNELS 3 Xrotation Yrotation Zrotation
						End Site
						{
							OFFSET 0.000000 18.501587 0.000000
						}
					}
				}
			}
			JOINT Left_ShortSleeve
			{
				OFFSET 0.265923 -10.480953 1.153800
				CHANNELS 3 Xrotation Yrotation Zrotation
				End Site
				{
					OFFSET 1.725763 19.823879 0.000000
				}
			}
		}
		JOINT RightUpLeg
		{
			OFFSET -6.797100 -2.508499 -1.318700
			CHANNELS 3 Xrotation Yrotation Zrotation
			JOINT RightLeg
			{
				OFFSET -0.082453 -29.241932 0.688000
				CHANNELS 3 Xrotation Yrotation Zrotation
				JOINT RightFoot
				{
					OFFSET 0.082453 -29.568058 -0.264600
					CHANNELS 3 Xrotation Yrotation Zrotation
					JOINT RightToeBase
					{
						OFFSET -3.115300 -8.682800 16.113400
						CHANNELS 3 Xrotation Yrotation Zrotation
						End Site
						{
							OFFSET 0.000000 18.567114 0.000000
						}
					}
				}
			}
			JOINT Right_ShortSleeve
			{
				OFFSET -0.265923 -10.480953 1.153800
				CHANNELS 3 Xrotation Yrotation Zrotation
				End Site
				{
					OFFSET -1.725766 19.823910 0.000000
				}
			}
		}
	}
	JOINT Spine
	{
		OFFSET 0.000000 13.368103 0.470500
		CHANNELS 3 Xrotation Yrotation Zrotation
		JOINT Spine1
		{
			OFFSET 0.147000 13.837402 0.538800
			CHANNELS 3 Xrotation Yrotation Zrotation
			JOINT Spine2
			{
				OFFSET 0.168000 16.242897 -1.435500
				CHANNELS 3 Xrotation Yrotation Zrotation
				JOINT Neck
				{
					OFFSET 0.217200 18.631500 -1.679100
					CHANNELS 3 Xrotation Yrotation Zrotation
					JOINT Head
					{
						OFFSET 0.000000 6.599396 1.385900
						CHANNELS 3 Xrotation Yrotation Zrotation
						JOINT Hat
						{
							OFFSET -0.532200 27.220596 -10.096100
							CHANNELS 3 Xrotation Yrotation Zrotation
							End Site
							{
								OFFSET 0.000000 22.029861 0.000000
							}
						}
						JOINT HairD
						{
							OFFSET -10.777400 17.437393 -1.325900
							CHANNELS 3 Xrotation Yrotation Zrotation
							JOINT HairD1
							{
								OFFSET -3.290299 -11.051193 1.062200
								CHANNELS 3 Xrotation Yrotation Zrotation
								End Site
								{
									OFFSET 0.000000 11.579437 0.000000
								}
							}
						}
						JOINT HairB
						{
							OFFSET -10.777400 17.437393 1.467900
							CHANNELS 3 Xrotation Yrotation Zrotation
							JOINT HairB1
							{
								OFFSET -1.561200 -12.956299 3.590200
								CHANNELS 3 Xrotation Yrotation Zrotation
								End Site
								{
									OFFSET 0.000000 13.534866 0.000000
								}
							}
						}
						JOINT HairA
						{
							OFFSET 9.713100 17.437393 1.467900
							CHANNELS 3 Xrotation Yrotation Zrotation
							JOINT HairA1
							{
								OFFSET 1.561200 -12.956299 3.590200
								CHANNELS 3 Xrotation Yrotation Zrotation
								End Site
								{
									OFFSET 0.000000 13.534866 0.000000
								}
							}
						}
						JOINT HairC
						{
							OFFSET 9.713100 17.437393 -1.325900
							CHANNELS 3 Xrotation Yrotation Zrotation
							JOINT HairC1
							{
								OFFSET 3.290300 -11.051193 1.062200
								CHANNELS 3 Xrotation Yrotation Zrotation
								End Site
								{
									OFFSET 0.000000 11.579437 0.000000
								}
							}
						}
					}
				}
				JOINT LeftShoulder
				{
					OFFSET 5.101800 15.108002 -2.763700
					CHANNELS 3 Xrotation Yrotation Zrotation
					JOINT LeftArm
					{
						OFFSET 9.825497 2.506317 -1.597400
						CHANNELS 3 Xrotation Yrotation Zrotation
						JOINT LeftForeArm
						{
							OFFSET 21.966244 0.000000 0.000000
							CHANNELS 3 Xrotation Yrotation Zrotation
							JOINT LeftHand
							{
								OFFSET 33.879036 0.000000 0.000000
								CHANNELS 3 Xrotation Yrotation Zrotation
								JOINT LeftHandThumb1
								{
									OFFSET 6.715286 -2.359680 3.363841
									CHANNELS 3 Xrotation Yrotation Zrotation
									JOINT LeftHandThumb2
									{
										OFFSET 2.507072 -1.447464 1.447461
										CHANNELS 3 Xrotation Yrotation Zrotation
										JOINT LeftHandThumb3
										{
											OFFSET 2.898338 -1.673355 1.673357
											CHANNELS 3 Xrotation Yrotation Zrotation
											End Site
											{
												OFFSET -0.295959 3.727692 -0.131651
											}
										}
									}
								}
								JOINT LeftHandIndex1
								{
									OFFSET 14.190811 -0.254547 3.840278
									CHANNELS 3 Xrotation Yrotation Zrotation
									JOINT LeftHandIndex2
									{
										OFFSET 3.551727 0.000000 -0.000000
										CHANNELS 3 Xrotation Yrotation Zrotation
										JOINT LeftHandIndex3
										{
											OFFSET 2.894196 0.000000 0.000000
											CHANNELS 3 Xrotation Yrotation Zrotation
											End Site
											{
												OFFSET -1.000603 2.690872 0.366626
											}
										}
									}
								}
								JOINT LeftHandMiddle1
								{
									OFFSET 13.776489 0.000000 0.000000
									CHANNELS 3 Xrotation Yrotation Zrotation
									JOINT LeftHandMiddle2
									{
										OFFSET 3.438232 0.000000 0.000000
										CHANNELS 3 Xrotation Yrotation Zrotation
										JOINT LeftHandMiddle3
										{
											OFFSET 3.691551 0.000000 0.000000
											CHANNELS 3 Xrotation Yrotation Zrotation
											End Site
											{
												OFFSET -1.082298 3.499527 0.457670
											}
										}
									}
								}
								JOINT LeftHandRing1
								{
									OFFSET 13.966164 -0.268127 -3.067488
									CHANNELS 3 Xrotation Yrotation Zrotation
									JOINT LeftHandRing2
									{
										OFFSET 3.162567 0.000000 0.000000
										CHANNELS 3 Xrotation Yrotation Zrotation
										JOINT LeftHandRing3
										{
											OFFSET 3.324348 0.000000 0.000000
											CHANNELS 3 Xrotation Yrotation Zrotation
											End Site
											{
												OFFSET -0.861900 3.184998 0.405154
											}
										}
									}
								}
								JOINT LeftHandPinky1
								{
									OFFSET 13.131393 -0.168503 -5.746925
									CHANNELS 3 Xrotation Yrotation Zrotation
									JOINT LeftHandPinky2
									{
										OFFSET 2.849182 0.000000 0.000000
										CHANNELS 3 Xrotation Yrotation Zrotation
										JOINT LeftHandPinky3
										{
											OFFSET 2.805038 0.000000 0.000000
											CHANNELS 3 Xrotation Yrotation Zrotation
											End Site
											{
												OFFSET -0.882500 2.642609 0.325652
											}
										}
									}
								}
							}
							JOINT Left_Sleeve
							{
								OFFSET 6.592125 -0.646545 0.805568
								CHANNELS 3 Xrotation Yrotation Zrotation
								End Site
								{
									OFFSET -0.000179 20.275787 -0.000000
								}
							}
						}
					}
				}
				JOINT RightShoulder
				{
					OFFSET -5.731700 15.108002 -2.763700
					CHANNELS 3 Xrotation Yrotation Zrotation
					JOINT RightArm
					{
						OFFSET -9.825497 2.506317 -1.597400
						CHANNELS 3 Xrotation Yrotation Zrotation
						JOINT RightForeArm
						{
							OFFSET -21.966242 0.000000 0.000000
							CHANNELS 3 Xrotation Yrotation Zrotation
							JOINT RightHand
							{
								OFFSET -33.879032 0.000000 0.000000
								CHANNELS 3 Xrotation Yrotation Zrotation
								JOINT RightHandThumb1
								{
									OFFSET -6.715286 -2.359680 3.363841
									CHANNELS 3 Xrotation Yrotation Zrotation
									JOINT RightHandThumb2
									{
										OFFSET -2.507072 -1.447464 1.447461
										CHANNELS 3 Xrotation Yrotation Zrotation
										JOINT RightHandThumb3
										{
											OFFSET -2.898338 -1.673355 1.673357
											CHANNELS 3 Xrotation Yrotation Zrotation
											End Site
											{
												OFFSET 0.295959 3.727692 -0.131651
											}
										}
									}
								}
								JOINT RightHandIndex1
								{
									OFFSET -14.190811 -0.254547 3.840278
									CHANNELS 3 Xrotation Yrotation Zrotation
									JOINT RightHandIndex2
									{
										OFFSET -3.551727 0.000000 -0.000000
										CHANNELS 3 Xrotation Yrotation Zrotation
										JOINT RightHandIndex3
										{
											OFFSET -2.894196 0.000000 0.000000
											CHANNELS 3 Xrotation Yrotation Zrotation
											End Site
											{
												OFFSET 1.000603 2.690872 0.366626
											}
										}
									}
								}
								JOINT RightHandMiddle1
								{
									OFFSET -13.776489 0.000000 0.000000
									CHANNELS 3 Xrotation Yrotation Zrotation
									JOINT RightHandMiddle2
									{
										OFFSET -3.438232 0.000000 0.000000
										CHANNELS 3 Xrotation Yrotation Zrotation
										JOINT RightHandMiddle3
										{
											OFFSET -3.691551 0.000000 0.000000
											CHANNELS 3 Xrotation Yrotation Zrotation
											End Site
											{
												OFFSET 1.082298 3.499527 0.457670
											}
										}
									}
								}
								JOINT RightHandRing1
								{
									OFFSET -13.966164 -0.268127 -3.067488
									CHANNELS 3 Xrotation Yrotation Zrotation
									JOINT RightHandRing2
									{
										OFFSET -3.162567 0.000000 0.000000
										CHANNELS 3 Xrotation Yrotation Zrotation
										JOINT RightHandRing3
										{
											OFFSET -3.324348 0.000000 0.000000
											CHANNELS 3 Xrotation Yrotation Zrotation
											End Site
											{
												OFFSET 0.861900 3.184998 0.405154
											}
										}
									}
								}
								JOINT RightHandPinky1
								{
									OFFSET -13.131393 -0.168503 -5.746925
									CHANNELS 3 Xrotation Yrotation Zrotation
									JOINT RightHandPinky2
									{
										OFFSET -2.849182 0.000000 0.000000
										CHANNELS 3 Xrotation Yrotation Zrotation
										JOINT RightHandPinky3
										{
											OFFSET -2.805038 0.000000 0.000000
											CHANNELS 3 Xrotation Yrotation Zrotation
											End Site
											{
												OFFSET 0.882500 2.642609 0.325652
											}
										}
									}
								}
							}
							JOINT Right_Sleeve
							{
								OFFSET -6.592125 -0.646545 0.805568
								CHANNELS 3 Xrotation Yrotation Zrotation
								End Site
								{
									OFFSET 0.000179 20.275787 -0.000000
								}
							}
						}
					}
				}
				JOINT Bind_Right_JacketString
				{
					OFFSET -3.534800 11.969597 7.200700
					CHANNELS 3 Xrotation Yrotation Zrotation
					JOINT Bind_Right_JacketString1
					{
						OFFSET -0.319900 -6.102600 2.794100
						CHANNELS 3 Xrotation Yrotation Zrotation
						End Site
						{
							OFFSET 0.000000 6.719452 0.000000
						}
					}
				}
				JOINT Bind_Left_JacketString
				{
					OFFSET 2.904800 11.969597 7.200700
					CHANNELS 3 Xrotation Yrotation Zrotation
					JOINT Bind_Left_JacketString1
					{
						OFFSET 0.364800 -5.904503 3.186800
						CHANNELS 3 Xrotation Yrotation Zrotation
						End Site
						{
							OFFSET 0.000000 6.719513 0.000000
						}
					}
				}
				JOINT HairE
				{
					OFFSET 5.915200 17.612701 -11.592200
					CHANNELS 3 Xrotation Yrotation Zrotation
					JOINT HairE1
					{
						OFFSET 0.289200 -7.171898 -1.284500
						CHANNELS 3 Xrotation Yrotation Zrotation
						End Site
						{
							OFFSET 0.000000 7.291756 0.000000
						}
					}
				}
				JOINT HairF
				{
					OFFSET -0.864800 17.612701 -11.592200
					CHANNELS 3 Xrotation Yrotation Zrotation
					JOINT HairF1
					{
						OFFSET 0.000000 -14.087097 -2.127501
						CHANNELS 3 Xrotation Yrotation Zrotation
						End Site
						{
							OFFSET 0.000000 14.246841 0.000000
						}
					}
				}
				JOINT HairG
				{
					OFFSET -8.087700 17.612701 -11.592200
					CHANNELS 3 Xrotation Yrotation Zrotation
					JOINT HairG1
					{
						OFFSET -0.293600 -6.081398 -0.910100
						CHANNELS 3 Xrotation Yrotation Zrotation
						End Site
						{
							OFFSET 0.000000 6.156120 0.000000
						}
					}
				}
			}
		}
	}
	JOINT Pouch
	{
		OFFSET 0.000000 4.394501 10.847300
		CHANNELS 3 Xrotation Yrotation Zrotation
		End Site
		{
			OFFSET 0.000000 21.880577 0.000000
		}
	}
	JOINT Bag
	{
		OFFSET -13.229000 4.813004 -0.593300
		CHANNELS 3 Xrotation Yrotation Zrotation
		End Site
		{
			OFFSET 0.000000 21.880577 0.000000
		}
	}
	JOINT OccupyGuyFacialAnim_Joint
	{
		OFFSET 1.000000 -70.206398 -1.655000
		CHANNELS 3 Xrotation Yrotation Zrotation
		End Site
		{
			OFFSET 0.000000 21.880577 0.000000
		}
	}
}
MOTION
Frames: 4
Frame Time: 0.033333
-46.709496 66.669197 -23.712479 57.035088 -105.497278 58.890376 -0.000000 -0.000000 0.000000 -15.582616 11.473311 11.944039 34.088655 -7.488055 0.832921 -6.113614 1.065243 -7.824339 0.000000 0.000000 0.000000 -0.000001 -0.000001 0.000000 -3.011335 -16.934330 -10.802750 44.087751 -4.898481 -2.371368 -29.153816 -2.184412 7.697498 -0.000000 -0.000002 -0.000000 -0.000001 0.000003 0.000000 3.567453 -1.091034 0.133280 5.395788 -2.178915 -0.055373 5.388976 -2.207375 0.012802 8.168942 3.469895 -1.062927 8.267683 19.448610 -9.655330 -0.000000 0.000000 -0.000000 -0.000000 0.000000 -0.000000 -0.000000 0.000000 -0.000001 -0.000000 0.000000 -0.000000 -0.000002 0.000000 -0.000000 -0.000000 0.000000 -0.000000 -0.000002 0.000000 -0.000000 -0.000000 0.000000 -0.000000 -0.000000 0.000000 -0.000000 7.055081 -22.136472 -5.373618 -2.620576 26.809126 -51.294365 -0.000080 -106.213321 -0.000086 19.857004 10.677435 -2.674100 4.891672 7.994789 1.884002 10.475112 36.544333 -16.206465 0.000002 0.000001 -0.000000 7.775686 6.956328 -86.152735 10.250083 6.003549 -119.372077 0.000002 -0.000001 -0.000000 6.554756 6.873493 -87.274299 9.404149 6.404048 -111.556018 -0.000003 0.000001 -0.000001 3.127834 6.869447 -89.819665 9.007624 6.545915 -108.040745 0.000002 0.000001 0.000002 1.160403 7.315437 -94.148427 8.017687 2.700470 -99.510720 -0.000001 -0.000001 0.000003 0.000003 -0.000002 0.000001 4.546566 14.025702 7.980984 12.977466 14.692734 49.575053 0.000054 131.384207 -0.000061 12.912401 8.327332 -5.502912 2.101964 -10.083003 3.633752 13.438096 -33.955520 8.870041 0.000004 -0.000001 0.000001 9.556176 -7.137738 86.157891 10.350195 -6.061964 119.375519 -0.000002 0.000000 0.000000 6.610170 -6.940063 87.289408 9.494158 -6.467113 111.542624 0.000002 0.000002 -0.000004 1.946391 -7.142756 92.181121 8.379089 -6.800032 101.912317 -0.000000 0.000000 0.000002 -2.850687 -7.674984 94.127486 8.100971 -6.852405 99.572670 0.000003 0.000006 0.000003 0.000000 0.000003 0.000000 -0.000000 -0.000001 -0.000000 -0.000000 0.000000 -0.000000 -0.000000 -0.000001 -0.000000 -0.000000 -0.000001 -0.000000 -0.000000 -0.000001 -0.000000 -0.000000 0.000000 -0.000000 -0.000000 -0.000001 -0.000000 -0.000000 -0.000001 -0.000000 -0.000000 -0.000001 -0.000000 -0.000000 0.000000 -0.000000 -0.000000 -0.000000 0.000000 -0.000000 -0.000000 0.000000 -0.000000 -0.000000 0.000000 
-46.702892 66.663887 -23.723957 57.034709 -105.471467 58.878512 0.000001 0.000000 0.000000 -15.623175 11.443215 11.960781 34.107458 -7.482587 0.842498 -6.114412 1.066373 -7.844399 -0.000000 -0.000000 0.000000 -0.000000 0.000000 0.000000 -3.037720 -16.935420 -10.780450 44.109847 -4.914184 -2.360278 -29.166711 -2.181753 7.686243 -0.000000 0.000000 0.000000 -0.000000 0.000002 -0.000000 3.563962 -1.097391 0.134358 5.390231 -2.191407 -0.067320 5.382860 -2.221815 0.001282 8.171721 3.472315 -1.061006 8.303452 19.472864 -9.703052 0.000002 -0.000000 0.000000 0.000002 -0.000000 0.000000 0.000002 -0.000000 0.000000 0.000002 -0.000000 0.000000 0.000002 -0.000000 -0.000000 0.000002 -0.000000 0.000000 0.000002 -0.000000 -0.000000 0.000002 -0.000000 0.000000 0.000002 -0.000000 0.000000 7.057643 -22.144139 -5.366059 -2.628074 26.828105 -51.285660 -0.000078 -106.223696 -0.000079 19.793741 10.689330 -2.796743 4.891668 7.994785 1.884002 10.475100 36.544340 -16.206456 0.000000 0.000001 0.000000 7.775682 6.956333 -86.152741 10.250075 6.003552 -119.372077 0.000002 0.000002 -0.000002 6.554754 6.873496 -87.274293 9.404160 6.404049 -111.556032 0.000002 0.000000 -0.000001 3.127832 6.869442 -89.819658 9.007617 6.545916 -108.040725 -0.000003 0.000000 -0.000002 1.160406 7.315426 -94.148414 8.017675 2.700473 -99.510713 -0.000001 -0.000000 -0.000001 0.000000 -0.000001 -0.000001 4.617551 14.271670 8.172569 12.991712 14.382749 49.303352 0.000016 131.574770 -0.000018 12.799973 8.273114 -5.537792 2.101953 -10.083018 3.633757 13.438100 -33.955517 8.870039 0.000002 -0.000001 0.000001 9.556172 -7.137729 86.157891 10.350184 -6.061956 119.375533 0.000001 -0.000000 0.000000 6.610145 -6.940070 87.289415 9.494158 -6.467122 111.542617 0.000001 0.000000 0.000001 1.946396 -7.142772 92.181135 8.379101 -6.800020 101.912310 -0.000000 -0.000001 -0.000002 -2.850682 -7.674994 94.127486 8.100974 -6.852401 99.572690 0.000000 -0.000001 0.000000 -0.000002 -0.000000 -0.000001 -0.000000 0.000001 0.000000 -0.000000 0.000001 -0.000000 -0.000000 0.000001 -0.000000 -0.000000 0.000001 -0.000000 -0.000000 0.000001 0.000000 -0.000000 0.000001 0.000000 -0.000000 0.000001 -0.000000 -0.000000 0.000001 -0.000000 -0.000000 0.000001 0.000000 -0.000000 0.000001 0.000000 0.000001 0.000000 0.000000 0.000001 0.000000 0.000000 0.000001 0.000000 0.000000 
-46.700523 66.659180 -23.735844 57.024525 -105.457909 58.860166 0.000001 -0.000000 -0.000000 -15.646217 11.416987 11.971965 34.126699 -7.479435 0.858995 -6.123624 1.068831 -7.870299 0.000000 -0.000000 0.000000 0.000001 0.000000 -0.000000 -3.052751 -16.944695 -10.767039 44.129521 -4.908651 -2.350902 -29.184244 -2.177655 7.669116 0.000000 -0.000002 -0.000000 -0.000001 0.000000 -0.000001 3.562748 -1.102079 0.135104 5.388154 -2.200581 -0.078019 5.380300 -2.232675 -0.009062 8.183152 3.475190 -1.061414 8.339715 19.494514 -9.732684 0.000001 -0.000000 0.000000 0.000001 -0.000000 0.000000 0.000001 -0.000000 0.000000 0.000001 -0.000000 0.000000 -0.000001 0.000000 -0.000000 0.000001 -0.000000 0.000000 -0.000001 0.000000 -0.000000 0.000001 -0.000000 0.000000 0.000001 -0.000000 0.000000 7.053766 -22.132262 -5.374182 -2.644433 26.810620 -51.259740 -0.000133 -106.208745 -0.000116 19.747132 10.684079 -2.906526 4.891668 7.994786 1.884007 10.475106 36.544333 -16.206456 0.000001 -0.000001 0.000003 7.775681 6.956336 -86.152728 10.250081 6.003536 -119.372063 0.000001 0.000001 0.000002 6.554748 6.873498 -87.274286 9.404155 6.404058 -111.556004 0.000001 0.000000 0.000002 3.127830 6.869442 -89.819658 9.007624 6.545902 -108.040725 -0.000000 0.000002 -0.000001 1.160392 7.315435 -94.148400 8.017677 2.700473 -99.510699 -0.000001 0.000000 0.000001 0.000000 -0.000000 0.000001 4.692542 14.530614 8.374686 13.007592 14.057224 49.016692 -0.000003 131.786246 0.000004 12.691149 8.208678 -5.562440 2.101963 -10.083025 3.633751 13.438116 -33.955510 8.870044 0.000003 0.000000 0.000001 9.556190 -7.137734 86.157898 10.350189 -6.061955 119.375546 0.000000 -0.000001 0.000002 6.610163 -6.940072 87.289435 9.494159 -6.467128 111.542617 0.000005 0.000002 -0.000000 1.946406 -7.142768 92.181107 8.379087 -6.800017 101.912310 -0.000000 0.000002 -0.000001 -2.850664 -7.674998 94.127479 8.100969 -6.852413 99.572670 0.000002 0.000001 0.000002 0.000001 -0.000001 0.000001 -0.000000 -0.000001 0.000000 -0.000000 0.000000 0.000000 -0.000000 -0.000001 0.000000 -0.000000 -0.000001 0.000000 -0.000000 -0.000001 0.000000 -0.000000 0.000000 0.000000 -0.000000 -0.000001 0.000000 -0.000000 -0.000001 0.000000 -0.000000 -0.000001 0.000000 -0.000000 0.000000 0.000000 0.000001 -0.000000 -0.000000 0.000001 -0.000000 -0.000000 0.000001 -0.000000 -0.000000 
-46.703888 66.655434 -23.747952 57.016643 -105.456468 58.849183 0.000001 0.000000 -0.000000 -15.652369 11.409283 11.984352 34.144314 -7.493069 0.871783 -6.139314 1.071733 -7.890214 0.000000 -0.000000 0.000000 -0.000001 -0.000001 -0.000000 -3.051678 -16.958894 -10.765853 44.144684 -4.888417 -2.338138 -29.205947 -2.172470 7.648459 0.000000 0.000000 -0.000000 0.000001 0.000000 -0.000000 3.564475 -1.104840 0.136948 5.389812 -2.205933 -0.079843 5.381736 -2.238730 -0.010613 8.198577 3.479810 -1.061940 8.388911 19.513905 -9.726054 0.000000 0.000001 0.000000 0.000000 0.000001 0.000000 0.000000 0.000001 0.000000 0.000000 0.000001 0.000000 -0.000001 -0.000000 0.000000 0.000000 0.000001 0.000000 -0.000001 -0.000000 0.000000 0.000000 0.000001 0.000000 0.000000 0.000001 0.000000 7.050632 -22.122749 -5.381577 -2.643628 26.768935 -51.252309 -0.000061 -106.172859 -0.000070 19.725173 10.689173 -2.947130 4.891666 7.994786 1.883997 10.475084 36.544326 -16.206432 0.000001 -0.000001 0.000000 7.775689 6.956338 -86.152728 10.250079 6.003548 -119.372063 -0.000002 0.000000 -0.000004 6.554766 6.873494 -87.274299 9.404153 6.404047 -111.556032 -0.000001 0.000000 -0.000001 3.127840 6.869442 -89.819665 9.007624 6.545914 -108.040745 -0.000002 0.000001 -0.000001 1.160403 7.315431 -94.148434 8.017678 2.700472 -99.510720 -0.000000 -0.000003 0.000001 0.000000 0.000001 0.000001 4.733024 14.669792 8.484571 13.022107 13.893755 48.854362 0.000024 131.903739 -0.000038 12.644471 8.159685 -5.570448 2.101972 -10.083034 3.633764 13.438104 -33.955510 8.870038 0.000003 -0.000001 -0.000001 9.556185 -7.137715 86.157932 10.350181 -6.061951 119.375533 -0.000003 0.000002 0.000001 6.610170 -6.940070 87.289435 9.494166 -6.467092 111.542631 -0.000001 0.000001 0.000001 1.946396 -7.142760 92.181100 8.379087 -6.800025 101.912324 0.000001 0.000001 0.000002 -2.850669 -7.674991 94.127493 8.100981 -6.852407 99.572697 -0.000002 0.000001 -0.000001 -0.000002 -0.000001 -0.000002 0.000000 -0.000000 -0.000000 0.000000 -0.000000 -0.000000 0.000000 -0.000000 -0.000000 0.000000 -0.000000 -0.000000 0.000000 -0.000000 -0.000000 0.000000 -0.000000 -0.000000 0.000000 -0.000000 -0.000000 0.000000 -0.000000 -0.000000 0.000000 -0.000000 -0.000000 0.000000 -0.000000 -0.000000 0.000001 0.000000 -0.000000 0.000001 0.000000 -0.000000 0.000001 0.000000 -0.000000 
